<svg preserveAspectRatio="none" width="100%" height="100%" overflow="visible" style="display: block;" viewBox="0 0 20 19.9656" fill="none" xmlns="http://www.w3.org/2000/svg">
<g id="Group">
<path id="Vector" d="M2.40383 0C1.07544 0 0.000214915 1.07715 0 2.40254C0 3.72921 1.07522 4.80615 2.40404 4.80615C3.72921 4.80615 4.80593 3.72921 4.80593 2.40254C4.80593 1.07694 3.72899 0 2.40383 0Z" fill="var(--fill-0, #735E5D)"/>
<path id="Vector_2" d="M4.47562 6.62924H0.330554V19.9656H4.47562V6.62924Z" fill="var(--fill-0, #735E5D)"/>
<path id="Vector_3" d="M15.0279 6.29763C13.0116 6.29763 11.6596 7.40315 11.1062 8.45151H11.0507V6.62924H7.07522H7.075V19.9654H11.2164V13.3679C11.2164 11.6286 11.5476 9.94388 13.7041 9.94388C15.8296 9.94388 15.8579 11.9331 15.8579 13.4794V19.9652H20V12.6503C20 9.05972 19.2252 6.29763 15.0279 6.29763Z" fill="var(--fill-0, #735E5D)"/>
</g>
</svg>
