<svg preserveAspectRatio="none" width="100%" height="100%" overflow="visible" style="display: block;" viewBox="0 0 48 48" fill="none" xmlns="http://www.w3.org/2000/svg">
<g id="mail">
<rect x="0.5" y="0.5" width="47" height="47" rx="3.5" fill="var(--fill-0, #FDFBF7)"/>
<rect x="0.5" y="0.5" width="47" height="47" rx="3.5" stroke="var(--stroke-0, #CAC3B6)"/>
<path id="mail_2" d="M16 32C15.45 32 14.9792 31.8042 14.5875 31.4125C14.1958 31.0208 14 30.55 14 30V18C14 17.45 14.1958 16.9792 14.5875 16.5875C14.9792 16.1958 15.45 16 16 16H32C32.55 16 33.0208 16.1958 33.4125 16.5875C33.8042 16.9792 34 17.45 34 18V30C34 30.55 33.8042 31.0208 33.4125 31.4125C33.0208 31.8042 32.55 32 32 32H16ZM32 20L24.525 24.675C24.4417 24.725 24.3542 24.7625 24.2625 24.7875C24.1708 24.8125 24.0833 24.825 24 24.825C23.9167 24.825 23.8292 24.8125 23.7375 24.7875C23.6458 24.7625 23.5583 24.725 23.475 24.675L16 20V30H32V20ZM24 23L32 18H16L24 23ZM16 20.25V18.775V18.8V18.7875V20.25Z" fill="var(--fill-0, #735E5D)"/>
</g>
</svg>
