<svg preserveAspectRatio="none" width="100%" height="100%" overflow="visible" style="display: block;" viewBox="0 0 24 24" fill="none" xmlns="http://www.w3.org/2000/svg">
<g id="drag">
<path id="arrows_outward" d="M17.75 12.6H12.575V10.6H17.75L15.875 8.725C15.6917 8.525 15.5958 8.2875 15.5875 8.0125C15.5792 7.7375 15.675 7.5 15.875 7.3C16.075 7.1 16.3083 7 16.575 7C16.8417 7 17.075 7.1 17.275 7.3L20.875 10.9C20.975 11 21.0458 11.1083 21.0875 11.225C21.1292 11.3417 21.15 11.4667 21.15 11.6C21.15 11.7333 21.1292 11.8583 21.0875 11.975C21.0458 12.0917 20.975 12.2 20.875 12.3L17.275 15.9C17.075 16.1 16.8417 16.2 16.575 16.2C16.3083 16.2 16.075 16.1 15.875 15.9C15.675 15.7 15.575 15.4625 15.575 15.1875C15.575 14.9125 15.675 14.675 15.875 14.475L17.75 12.6ZM5.4 12.6L7.275 14.475C7.45833 14.675 7.55417 14.9125 7.5625 15.1875C7.57083 15.4625 7.475 15.7 7.275 15.9C7.075 16.1 6.84167 16.2 6.575 16.2C6.30833 16.2 6.075 16.1 5.875 15.9L2.275 12.3C2.175 12.2 2.10417 12.0917 2.0625 11.975C2.02083 11.8583 2 11.7333 2 11.6C2 11.4667 2.02083 11.3417 2.0625 11.225C2.10417 11.1083 2.175 11 2.275 10.9L5.875 7.3C6.075 7.1 6.30833 7 6.575 7C6.84167 7 7.075 7.1 7.275 7.3C7.475 7.5 7.575 7.7375 7.575 8.0125C7.575 8.2875 7.475 8.525 7.275 8.725L5.4 10.6H10.575V12.6H5.4Z" fill="var(--fill-0, #3D2424)"/>
</g>
</svg>
